<svg width="24" height="24" viewBox="0 0 24 24" fill="none" xmlns="http://www.w3.org/2000/svg">
<mask id="mask0_36_3551" style="mask-type:alpha" maskUnits="userSpaceOnUse" x="0" y="0" width="24" height="24">
<rect width="24" height="24" fill="#D9D9D9"/>
</mask>
<g mask="url(#mask0_36_3551)">
<path d="M11 23V21C8.91665 20.7666 7.12915 19.9041 5.63749 18.4125C4.14582 16.9208 3.28332 15.1333 3.04999 13.05H1.04999V11.05H3.04999C3.28332 8.96664 4.14582 7.17914 5.63749 5.68748C7.12915 4.19581 8.91665 3.33331 11 3.09998V1.09998H13V3.09998C15.0833 3.33331 16.8708 4.19581 18.3625 5.68748C19.8542 7.17914 20.7167 8.96664 20.95 11.05H22.95V13.05H20.95C20.7167 15.1333 19.8542 16.9208 18.3625 18.4125C16.8708 19.9041 15.0833 20.7666 13 21V23H11ZM12 19.05C13.9333 19.05 15.5833 18.3666 16.95 17C18.3167 15.6333 19 13.9833 19 12.05C19 10.1166 18.3167 8.46664 16.95 7.09998C15.5833 5.73331 13.9333 5.04998 12 5.04998C10.0667 5.04998 8.41665 5.73331 7.04999 7.09998C5.68332 8.46664 4.99999 10.1166 4.99999 12.05C4.99999 13.9833 5.68332 15.6333 7.04999 17C8.41665 18.3666 10.0667 19.05 12 19.05Z" fill="#1C1B1F"/>
</g>
</svg>
